<mxfile host="app.diagrams.net" modified="2023-04-28T10:33:30.336Z" agent="5.0 (Macintosh; Intel Mac OS X 10_15_7) AppleWebKit/537.36 (KHTML, like Gecko) Chrome/109.0.0.0 Safari/537.36" etag="citMF6wDmFghT9ljD48O" version="20.5.3" type="github">
  <diagram id="rYdwiMb5jvszhZctyrXV" name="第 1 页">
    <mxGraphModel dx="546" dy="534" grid="0" gridSize="10" guides="1" tooltips="1" connect="1" arrows="1" fold="1" page="0" pageScale="1" pageWidth="1920" pageHeight="1200" math="0" shadow="0">
      <root>
        <mxCell id="0" />
        <mxCell id="1" parent="0" />
        <mxCell id="fc0Et_haitifpb5bSG0c-15" value="" style="rounded=0;whiteSpace=wrap;html=1;fillColor=none;dashed=1;dashPattern=1 1;" parent="1" vertex="1">
          <mxGeometry x="605" y="391" width="689" height="535" as="geometry" />
        </mxCell>
        <mxCell id="fc0Et_haitifpb5bSG0c-1" value="" style="rounded=1;whiteSpace=wrap;html=1;dashed=1;dashPattern=1 1;" parent="1" vertex="1">
          <mxGeometry x="655" y="442" width="463" height="253" as="geometry" />
        </mxCell>
        <mxCell id="fc0Et_haitifpb5bSG0c-2" value="master0" style="ellipse;whiteSpace=wrap;html=1;aspect=fixed;fillColor=#008a00;fontColor=#ffffff;strokeColor=#005700;" parent="1" vertex="1">
          <mxGeometry x="666" y="468" width="84" height="84" as="geometry" />
        </mxCell>
        <mxCell id="fc0Et_haitifpb5bSG0c-3" value="slave0&lt;br&gt;" style="ellipse;whiteSpace=wrap;html=1;aspect=fixed;fillColor=#008a00;fontColor=#ffffff;strokeColor=#005700;" parent="1" vertex="1">
          <mxGeometry x="668" y="593" width="84" height="84" as="geometry" />
        </mxCell>
        <mxCell id="fc0Et_haitifpb5bSG0c-4" value="master1&lt;br&gt;" style="ellipse;whiteSpace=wrap;html=1;aspect=fixed;fillColor=#008a00;fontColor=#ffffff;strokeColor=#005700;" parent="1" vertex="1">
          <mxGeometry x="855" y="473" width="83" height="83" as="geometry" />
        </mxCell>
        <mxCell id="fc0Et_haitifpb5bSG0c-5" value="slave1&lt;br&gt;" style="ellipse;whiteSpace=wrap;html=1;aspect=fixed;fillColor=#008a00;fontColor=#ffffff;strokeColor=#005700;" parent="1" vertex="1">
          <mxGeometry x="857" y="598" width="83" height="83" as="geometry" />
        </mxCell>
        <mxCell id="fc0Et_haitifpb5bSG0c-6" value="master2&lt;br&gt;" style="ellipse;whiteSpace=wrap;html=1;aspect=fixed;fillColor=#008a00;fontColor=#ffffff;strokeColor=#005700;" parent="1" vertex="1">
          <mxGeometry x="1003" y="473" width="83" height="83" as="geometry" />
        </mxCell>
        <mxCell id="fc0Et_haitifpb5bSG0c-7" value="slave2&lt;br&gt;" style="ellipse;whiteSpace=wrap;html=1;aspect=fixed;fillColor=#008a00;fontColor=#ffffff;strokeColor=#005700;" parent="1" vertex="1">
          <mxGeometry x="1005" y="598" width="84" height="84" as="geometry" />
        </mxCell>
        <mxCell id="fc0Et_haitifpb5bSG0c-16" value="K8s集群" style="text;html=1;strokeColor=none;fillColor=none;align=center;verticalAlign=middle;whiteSpace=wrap;rounded=0;dashed=1;" parent="1" vertex="1">
          <mxGeometry x="1232" y="394" width="60" height="30" as="geometry" />
        </mxCell>
        <mxCell id="fc0Et_haitifpb5bSG0c-70" value="2 服务发现：&lt;br&gt;客户端请求获取redis集群拓扑" style="text;html=1;strokeColor=none;fillColor=none;align=center;verticalAlign=middle;whiteSpace=wrap;rounded=0;" parent="1" vertex="1">
          <mxGeometry x="460" y="2123" width="86" height="40" as="geometry" />
        </mxCell>
        <mxCell id="k7kp1MV-_mNu26BSV135-75" value="subnet&lt;br&gt;（BGP或OVS实现）" style="text;html=1;strokeColor=none;fillColor=none;align=center;verticalAlign=middle;whiteSpace=wrap;rounded=0;dashed=1;dashPattern=1 1;" parent="1" vertex="1">
          <mxGeometry x="2259" y="198" width="117" height="30" as="geometry" />
        </mxCell>
        <mxCell id="k7kp1MV-_mNu26BSV135-80" value="redis集群" style="text;html=1;strokeColor=none;fillColor=none;align=center;verticalAlign=middle;whiteSpace=wrap;rounded=0;dashed=1;dashPattern=1 1;" parent="1" vertex="1">
          <mxGeometry x="1040.13" y="445" width="60" height="30" as="geometry" />
        </mxCell>
        <mxCell id="YecgM4xgUUCfINCVM_Nl-3" style="edgeStyle=orthogonalEdgeStyle;rounded=0;orthogonalLoop=1;jettySize=auto;html=1;exitX=0;exitY=0.5;exitDx=0;exitDy=0;exitPerimeter=0;entryX=1;entryY=0.5;entryDx=0;entryDy=0;dashed=1;" parent="1" source="YecgM4xgUUCfINCVM_Nl-1" target="fc0Et_haitifpb5bSG0c-2" edge="1">
          <mxGeometry relative="1" as="geometry" />
        </mxCell>
        <mxCell id="YecgM4xgUUCfINCVM_Nl-4" style="edgeStyle=orthogonalEdgeStyle;rounded=0;orthogonalLoop=1;jettySize=auto;html=1;exitX=0;exitY=0.5;exitDx=0;exitDy=0;exitPerimeter=0;entryX=0.5;entryY=1;entryDx=0;entryDy=0;dashed=1;" parent="1" source="YecgM4xgUUCfINCVM_Nl-1" target="fc0Et_haitifpb5bSG0c-3" edge="1">
          <mxGeometry relative="1" as="geometry" />
        </mxCell>
        <mxCell id="YecgM4xgUUCfINCVM_Nl-5" style="edgeStyle=orthogonalEdgeStyle;rounded=0;orthogonalLoop=1;jettySize=auto;html=1;exitX=1;exitY=0.5;exitDx=0;exitDy=0;exitPerimeter=0;entryX=1;entryY=0.5;entryDx=0;entryDy=0;dashed=1;" parent="1" source="YecgM4xgUUCfINCVM_Nl-1" target="fc0Et_haitifpb5bSG0c-4" edge="1">
          <mxGeometry relative="1" as="geometry">
            <Array as="points">
              <mxPoint x="960" y="769" />
              <mxPoint x="960" y="515" />
            </Array>
          </mxGeometry>
        </mxCell>
        <mxCell id="YecgM4xgUUCfINCVM_Nl-6" style="edgeStyle=orthogonalEdgeStyle;rounded=0;orthogonalLoop=1;jettySize=auto;html=1;exitX=1;exitY=0.5;exitDx=0;exitDy=0;exitPerimeter=0;entryX=1;entryY=0.5;entryDx=0;entryDy=0;dashed=1;" parent="1" source="YecgM4xgUUCfINCVM_Nl-1" target="fc0Et_haitifpb5bSG0c-5" edge="1">
          <mxGeometry relative="1" as="geometry" />
        </mxCell>
        <mxCell id="YecgM4xgUUCfINCVM_Nl-9" style="edgeStyle=orthogonalEdgeStyle;rounded=0;orthogonalLoop=1;jettySize=auto;html=1;exitX=1;exitY=0.5;exitDx=0;exitDy=0;exitPerimeter=0;entryX=1;entryY=0.5;entryDx=0;entryDy=0;dashed=1;" parent="1" source="YecgM4xgUUCfINCVM_Nl-1" target="fc0Et_haitifpb5bSG0c-7" edge="1">
          <mxGeometry relative="1" as="geometry">
            <Array as="points">
              <mxPoint x="1106" y="769" />
              <mxPoint x="1106" y="640" />
            </Array>
          </mxGeometry>
        </mxCell>
        <mxCell id="YecgM4xgUUCfINCVM_Nl-10" style="edgeStyle=orthogonalEdgeStyle;rounded=0;orthogonalLoop=1;jettySize=auto;html=1;exitX=1;exitY=0.5;exitDx=0;exitDy=0;exitPerimeter=0;entryX=1;entryY=0.5;entryDx=0;entryDy=0;dashed=1;" parent="1" source="YecgM4xgUUCfINCVM_Nl-1" target="fc0Et_haitifpb5bSG0c-6" edge="1">
          <mxGeometry relative="1" as="geometry" />
        </mxCell>
        <mxCell id="YecgM4xgUUCfINCVM_Nl-22" style="edgeStyle=orthogonalEdgeStyle;rounded=0;orthogonalLoop=1;jettySize=auto;html=1;exitX=0.5;exitY=1;exitDx=0;exitDy=0;exitPerimeter=0;entryX=0;entryY=0.5;entryDx=0;entryDy=0;dashed=1;" parent="1" source="YecgM4xgUUCfINCVM_Nl-1" target="YecgM4xgUUCfINCVM_Nl-21" edge="1">
          <mxGeometry relative="1" as="geometry">
            <Array as="points">
              <mxPoint x="887" y="809" />
              <mxPoint x="887" y="860" />
            </Array>
          </mxGeometry>
        </mxCell>
        <mxCell id="YecgM4xgUUCfINCVM_Nl-1" value="ACL 规则" style="shape=cylinder3;whiteSpace=wrap;html=1;boundedLbl=1;backgroundOutline=1;size=15;" parent="1" vertex="1">
          <mxGeometry x="847" y="729" width="60" height="80" as="geometry" />
        </mxCell>
        <mxCell id="YecgM4xgUUCfINCVM_Nl-11" value="volume&lt;br&gt;mount &lt;br&gt;&amp;amp;&amp;amp;&lt;br&gt;updates sync" style="text;html=1;strokeColor=none;fillColor=none;align=center;verticalAlign=middle;whiteSpace=wrap;rounded=0;" parent="1" vertex="1">
          <mxGeometry x="741" y="786" width="89" height="30" as="geometry" />
        </mxCell>
        <mxCell id="YecgM4xgUUCfINCVM_Nl-13" value="configmap" style="text;html=1;strokeColor=none;fillColor=none;align=center;verticalAlign=middle;whiteSpace=wrap;rounded=0;" parent="1" vertex="1">
          <mxGeometry x="851" y="729" width="52" height="28" as="geometry" />
        </mxCell>
        <mxCell id="YecgM4xgUUCfINCVM_Nl-20" style="edgeStyle=orthogonalEdgeStyle;rounded=0;orthogonalLoop=1;jettySize=auto;html=1;exitX=0;exitY=0.3333333333333333;exitDx=0;exitDy=0;exitPerimeter=0;entryX=1;entryY=0;entryDx=0;entryDy=15;entryPerimeter=0;dashed=1;" parent="1" source="YecgM4xgUUCfINCVM_Nl-14" target="YecgM4xgUUCfINCVM_Nl-1" edge="1">
          <mxGeometry relative="1" as="geometry">
            <Array as="points">
              <mxPoint x="1196" y="606" />
              <mxPoint x="1196" y="744" />
            </Array>
          </mxGeometry>
        </mxCell>
        <mxCell id="YecgM4xgUUCfINCVM_Nl-14" value="Actor" style="shape=umlActor;verticalLabelPosition=bottom;verticalAlign=top;html=1;outlineConnect=0;" parent="1" vertex="1">
          <mxGeometry x="1238" y="586" width="30" height="60" as="geometry" />
        </mxCell>
        <mxCell id="YecgM4xgUUCfINCVM_Nl-19" value="1 用户修改acl规则" style="text;html=1;strokeColor=none;fillColor=none;align=center;verticalAlign=middle;whiteSpace=wrap;rounded=0;" parent="1" vertex="1">
          <mxGeometry x="1204" y="688" width="60" height="30" as="geometry" />
        </mxCell>
        <mxCell id="YecgM4xgUUCfINCVM_Nl-30" style="edgeStyle=orthogonalEdgeStyle;rounded=0;orthogonalLoop=1;jettySize=auto;html=1;exitX=0.5;exitY=0;exitDx=0;exitDy=0;entryX=1;entryY=0.5;entryDx=0;entryDy=0;dashed=1;" parent="1" source="YecgM4xgUUCfINCVM_Nl-21" target="fc0Et_haitifpb5bSG0c-1" edge="1">
          <mxGeometry relative="1" as="geometry" />
        </mxCell>
        <mxCell id="YecgM4xgUUCfINCVM_Nl-21" value="redis-operator" style="rounded=1;whiteSpace=wrap;html=1;fillColor=#b1ddf0;strokeColor=#10739e;" parent="1" vertex="1">
          <mxGeometry x="1097" y="830" width="120" height="60" as="geometry" />
        </mxCell>
        <mxCell id="YecgM4xgUUCfINCVM_Nl-23" value="2 operator 监听到事件，等待kubelet将cm修改同步至所有redis容器的acl文件中" style="text;html=1;strokeColor=none;fillColor=none;align=center;verticalAlign=middle;whiteSpace=wrap;rounded=0;" parent="1" vertex="1">
          <mxGeometry x="919" y="868" width="150" height="30" as="geometry" />
        </mxCell>
        <mxCell id="YecgM4xgUUCfINCVM_Nl-25" style="edgeStyle=orthogonalEdgeStyle;rounded=0;orthogonalLoop=1;jettySize=auto;html=1;exitX=1;exitY=0.5;exitDx=0;exitDy=0;dashed=1;" parent="1" source="YecgM4xgUUCfINCVM_Nl-24" target="YecgM4xgUUCfINCVM_Nl-1" edge="1">
          <mxGeometry relative="1" as="geometry" />
        </mxCell>
        <mxCell id="YecgM4xgUUCfINCVM_Nl-24" value="kubelet" style="rounded=1;whiteSpace=wrap;html=1;" parent="1" vertex="1">
          <mxGeometry x="632" y="830" width="120" height="60" as="geometry" />
        </mxCell>
        <mxCell id="YecgM4xgUUCfINCVM_Nl-26" value="3 kubelet同步cm修改至redis容器" style="text;html=1;strokeColor=none;fillColor=none;align=center;verticalAlign=middle;whiteSpace=wrap;rounded=0;" parent="1" vertex="1">
          <mxGeometry x="756" y="863" width="95" height="30" as="geometry" />
        </mxCell>
        <mxCell id="YecgM4xgUUCfINCVM_Nl-28" style="edgeStyle=orthogonalEdgeStyle;rounded=0;orthogonalLoop=1;jettySize=auto;html=1;exitX=0.5;exitY=1;exitDx=0;exitDy=0;dashed=1;" parent="1" source="YecgM4xgUUCfINCVM_Nl-11" target="YecgM4xgUUCfINCVM_Nl-11" edge="1">
          <mxGeometry relative="1" as="geometry" />
        </mxCell>
        <mxCell id="YecgM4xgUUCfINCVM_Nl-29" value="volume&lt;br&gt;mount &lt;br&gt;&amp;amp;&amp;amp;&lt;br&gt;updates sync" style="text;html=1;strokeColor=none;fillColor=none;align=center;verticalAlign=middle;whiteSpace=wrap;rounded=0;" parent="1" vertex="1">
          <mxGeometry x="929" y="786" width="89" height="30" as="geometry" />
        </mxCell>
        <mxCell id="YecgM4xgUUCfINCVM_Nl-31" value="4 热加载acl文件内的规则至所有redis中" style="text;html=1;strokeColor=none;fillColor=none;align=center;verticalAlign=middle;whiteSpace=wrap;rounded=0;" parent="1" vertex="1">
          <mxGeometry x="1122" y="532" width="116" height="30" as="geometry" />
        </mxCell>
      </root>
    </mxGraphModel>
  </diagram>
</mxfile>
